<svg width="62" height="35" viewBox="0 0 62 35" fill="none" xmlns="http://www.w3.org/2000/svg"><g clip-path="url(#a)"><path d="M12.185 35c-2.382 0-4.489-.524-6.312-1.57a11.33 11.33 0 0 1-4.302-4.34Q.005 26.321.005 22.736c0-2.389.522-4.553 1.566-6.4a11.36 11.36 0 0 1 4.302-4.339c1.823-1.047 3.93-1.57 6.312-1.57s4.442.523 6.27 1.57a11.4 11.4 0 0 1 4.302 4.339q1.566 2.77 1.566 6.4c0 2.422-.518 4.512-1.543 6.354a11.2 11.2 0 0 1-4.284 4.34Q15.756 35 12.185 35m0-3.983q2.295-.002 4.06-1.062a7.46 7.46 0 0 0 2.76-2.922q.992-1.857.992-4.297c0-1.627-.33-3.062-.993-4.315q-.991-1.88-2.76-2.945c-1.178-.711-2.53-1.062-4.06-1.062q-2.294.001-4.06 1.062-1.767 1.065-2.782 2.945t-1.016 4.315q.001 2.437 1.016 4.297 1.014 1.861 2.783 2.922 1.765 1.063 4.06 1.062M39.644 35c-2.293 0-4.358-.538-6.18-1.618-1.828-1.075-3.268-2.548-4.326-4.404q-1.588-2.79-1.632-6.288V2.5q.002-1.018.639-1.636c.424-.411.965-.622 1.613-.622s1.221.206 1.631.622c.41.411.62.958.62 1.636v11.955a11.4 11.4 0 0 1 3.73-2.945c1.458-.725 3.052-1.085 4.791-1.085 2.149 0 4.074.538 5.785 1.618q2.559 1.618 4.041 4.385c.984 1.847 1.478 3.932 1.478 6.265q.001 3.499-1.613 6.289c-1.077 1.86-2.522 3.329-4.35 4.404q-2.739 1.619-6.222 1.618zm0-3.983q2.251.001 4.018-1.085c1.175-.725 2.112-1.72 2.802-2.988.69-1.267 1.04-2.683 1.04-4.25 0-1.566-.346-3.01-1.04-4.25a7.94 7.94 0 0 0-2.802-2.945q-1.767-1.086-4.018-1.085c-1.5 0-2.801.36-3.994 1.085a7.7 7.7 0 0 0-2.802 2.945q-1.015 1.86-1.016 4.25c0 1.595.34 2.983 1.016 4.25.676 1.272 1.613 2.268 2.802 2.988 1.193.725 2.521 1.085 3.994 1.085" fill="#000"/><path d="M57.702 8.63c-1.174 0-2.181-.425-3.03-1.276Q53.4 6.077 53.4 4.315q0-1.761 1.272-3.039Q55.946.001 57.702 0q1.757 0 3.03 1.276 1.273 1.278 1.273 3.04 0 1.76-1.273 3.038c-.848.851-1.855 1.277-3.03 1.277" fill="#FF6C45"/><path d="M57.702 35q-.97-.001-1.613-.64c-.429-.426-.638-.968-.638-1.618V13.04q.001-1.018.638-1.637c.425-.411.965-.622 1.613-.622s1.221.206 1.632.622c.41.412.62.959.62 1.637v19.707q0 .973-.62 1.617c-.415.43-.956.64-1.632.64z" fill="#000"/></g><defs><clipPath id="a"><path fill="#fff" d="M0 0h62v35H0z"/></clipPath></defs></svg>